<?xml version="1.0" encoding="UTF-8" standalone="no"?>
<!DOCTYPE svg PUBLIC "-//W3C//DTD SVG 1.1//EN" "http://www.w3.org/Graphics/SVG/1.1/DTD/svg11.dtd">
<svg width="100%" height="100%" viewBox="0 0 2481 1749" version="1.1" xmlns="http://www.w3.org/2000/svg" xmlns:xlink="http://www.w3.org/1999/xlink" xml:space="preserve" xmlns:serif="http://www.serif.com/" style="fill-rule:evenodd;clip-rule:evenodd;stroke-linecap:round;stroke-linejoin:round;stroke-miterlimit:1.5;">
    <g transform="matrix(1.36771,0,0,1.36771,-418.648,-57.8903)">
        <clipPath id="_clip1">
            <rect x="847.614" y="536.685" width="200.163" height="304.734"/>
        </clipPath>
        <g clip-path="url(#_clip1)">
            <path d="M1010,831.869C1009.99,833.699 979.575,802.752 965.919,786.771C949.701,767.791 928.164,741.39 912.695,717.989C897.652,695.232 881.792,666.105 873.106,646.363C866.599,631.574 862.938,613.879 860.577,599.538C858.45,586.625 856.759,562.601 858.935,560.313C860.134,559.052 899.112,559.698 915.574,559.536C929.618,559.398 944.735,559.423 957.707,559.341C969.608,559.265 984.667,559.024 993.407,559.042C998.989,559.054 1010.15,559.204 1010.15,559.449C1010.21,573.35 1010.18,635.014 1010.19,657.955C1010.2,671.001 1010.25,684.047 1010.24,697.093C1010.21,726.078 1010.16,815.568 1010,831.869ZM880.625,480.691C881.681,472.539 901.132,450.725 911.864,439.806C921.516,429.987 933.271,422.351 945.022,415.175C956.863,407.944 969.443,400.57 982.911,396.419C997.438,391.942 1016.18,389.737 1032.18,388.312C1047.7,386.93 1063.82,385.917 1078.92,387.87C1093.99,389.816 1108.81,394.222 1122.84,400.026C1137.31,406.009 1152.33,414.424 1165.74,423.763C1180.3,433.904 1199.91,451.397 1210.2,460.869C1216.63,466.789 1227.49,479.361 1227.47,480.596C1227.47,480.719 1206.9,480.641 1196.62,480.644C1139.48,480.662 937.268,480.496 884.602,480.703C883.281,480.708 880.615,480.767 880.625,480.691Z" style="fill:white;stroke:white;stroke-width:0.73px;"/>
        </g>
        <clipPath id="_clip2">
            <rect x="875.36" y="364.74" width="374.118" height="151.95"/>
        </clipPath>
        <g clip-path="url(#_clip2)">
            <path d="M1010,831.869C1009.99,833.699 979.575,802.752 965.919,786.771C949.701,767.791 928.164,741.39 912.695,717.989C897.652,695.232 881.792,666.105 873.106,646.363C866.599,631.574 862.938,613.879 860.577,599.538C858.45,586.625 856.759,562.601 858.935,560.313C860.134,559.052 899.112,559.698 915.574,559.536C929.618,559.398 944.735,559.423 957.707,559.341C969.608,559.265 984.667,559.024 993.407,559.042C998.989,559.054 1010.15,559.204 1010.15,559.449C1010.21,573.35 1010.18,635.014 1010.19,657.955C1010.2,671.001 1010.25,684.047 1010.24,697.093C1010.21,726.078 1010.16,815.568 1010,831.869ZM880.625,480.691C881.681,472.539 901.132,450.725 911.864,439.806C921.516,429.987 933.271,422.351 945.022,415.175C956.863,407.944 969.443,400.57 982.911,396.419C997.438,391.942 1016.18,389.737 1032.18,388.312C1047.7,386.93 1063.82,385.917 1078.92,387.87C1093.99,389.816 1108.81,394.222 1122.84,400.026C1137.31,406.009 1152.33,414.424 1165.74,423.763C1180.3,433.904 1199.91,451.397 1210.2,460.869C1216.63,466.789 1227.49,479.361 1227.47,480.596C1227.47,480.719 1206.9,480.641 1196.62,480.644C1139.48,480.662 937.268,480.496 884.602,480.703C883.281,480.708 880.615,480.767 880.625,480.691Z" style="fill:white;"/>
        </g>
        <path d="M1250.36,436.403C1250.58,436.538 1265.2,448.95 1270.61,454.792C1275.3,459.845 1279.06,465.699 1282.85,471.453C1286.85,477.536 1291.38,484.325 1294.65,491.292C1298.04,498.514 1300.68,506.842 1303.18,514.789C1305.75,522.937 1308.25,531.994 1310.06,540.181C1311.79,548.012 1313.11,556.626 1314.02,563.911C1314.84,570.538 1315.23,577.218 1315.49,583.891C1315.77,590.977 1316.61,598.972 1315.68,606.427C1314.65,614.731 1312.34,625.188 1309.31,633.715C1306.34,642.08 1303.16,650.747 1297.5,657.586C1290.57,665.965 1275.6,678.124 1267.71,683.993C1262.45,687.9 1256.25,690.423 1250.14,692.797C1243.57,695.352 1233.38,698.767 1228.28,699.326C1226.04,699.571 1219.79,699.214 1220.28,700.319C1222.43,705.213 1234.74,719.743 1241.33,728.631C1247.5,736.959 1253.84,745.513 1259.8,753.647C1265.58,761.55 1271.59,770.163 1277.05,777.433C1282.08,784.14 1289.72,793.796 1292.53,797.265C1292.64,797.408 1298.82,792.204 1301.72,789.403C1307.28,784.034 1318.92,772.051 1325.9,765.049C1331.8,759.142 1343.22,748.193 1343.65,747.388C1344.06,746.61 1344.29,727.667 1344.31,717.803C1344.37,684.255 1344.03,585.361 1344.02,546.101C1344.01,524.813 1343.87,493.425 1344.22,482.239C1344.23,481.921 1358.39,482.142 1368.96,482.392C1377.15,482.586 1381.04,482.277 1387.08,482.246C1395.93,482.2 1414.84,481.793 1422.03,482.117C1424.85,482.244 1428.02,483.063 1430.23,484.19C1432.27,485.236 1433.96,487.001 1435.27,488.884C1436.68,490.9 1438.12,493.629 1438.68,496.288C1439.48,500.09 1439.98,506.542 1440.06,511.699C1440.2,520.945 1439.64,538.408 1439.54,551.764C1439.42,566.502 1439.29,588.828 1439.38,600.13C1439.43,606.615 1439.63,620.1 1440.08,619.573C1442.08,617.238 1462.43,592.77 1472.85,580.642C1482.63,569.252 1492.88,557.763 1502.59,546.808C1512.05,536.135 1522.76,524.417 1531.11,514.913C1538.39,506.617 1548.35,494.968 1552.69,489.781C1554.28,487.876 1556.28,485.615 1557.12,483.791C1557.8,482.278 1558.25,480.398 1557.68,478.836C1556.9,476.696 1554.31,473.489 1552.44,470.947C1549.4,466.821 1544.13,459.402 1539.44,454.076C1534.62,448.603 1528.89,443.243 1523.5,438.107C1518.17,433.023 1513.05,427.663 1507.14,423.259C1501.23,418.847 1494.74,414.902 1488.04,411.64C1477.69,406.602 1458.86,397.228 1445.03,393.03C1432.12,389.109 1418.3,387.342 1405.09,386.45C1391.99,385.567 1378.77,386.232 1365.72,387.681C1352.55,389.144 1338.96,391.363 1326.08,395.223C1312.77,399.212 1296.82,405.978 1285.83,411.615C1276.62,416.338 1266.05,424.914 1260.13,429.045C1256.79,431.381 1249.99,436.168 1250.36,436.403Z" style="fill:white;"/>
        <path d="M1436.06,823.514C1436.07,823.074 1436.13,804.954 1436.14,795.693C1436.15,786.445 1436.19,777.196 1436.14,767.948C1436.09,758.403 1435.82,746.277 1435.83,738.421C1435.85,732.551 1436.42,724.711 1436.25,720.817C1436.19,719.502 1439.85,716.689 1441.7,714.671C1444.32,711.822 1448.58,707.421 1451.94,703.723C1456.62,698.578 1463.82,690.451 1469.75,683.801C1476.59,676.124 1485.35,666.472 1492.98,657.662C1501.79,647.504 1512.73,634.32 1522.56,622.857C1532.3,611.49 1542.72,599.271 1551.93,588.884C1560.43,579.305 1577.83,560.644 1577.86,560.532C1577.9,560.366 1577.94,567.199 1577.95,570.532C1577.97,575.41 1578.16,583.142 1577.98,589.801C1577.82,595.513 1577.99,605.242 1577.15,610.468C1576.29,615.76 1574.56,621.039 1572.88,626.207C1570.84,632.442 1568.14,640.881 1564.94,647.877C1560.04,658.6 1550.55,677.723 1543.45,690.544C1536.94,702.279 1529.95,713.767 1522.32,724.801C1513.7,737.252 1501.59,753.001 1491.77,765.248C1482.69,776.572 1471.14,789.418 1463.39,798.28C1457.44,805.078 1449.82,814.212 1445.26,818.417C1442.69,820.796 1436.06,823.582 1436.06,823.514ZM1093.38,562.992C1093.44,575.736 1093.65,611.398 1093.84,635.601C1094.08,665.309 1094.75,706.027 1094.82,741.242C1094.89,778.483 1094.29,831.123 1094.28,859.046C1094.27,875.623 1093.95,897.551 1094.75,908.776C1094.82,909.713 1106.99,918.881 1113.16,923.875C1120.99,930.214 1132.11,939.442 1141.72,946.811C1151.26,954.122 1160.87,961.368 1170.84,968.086C1181.4,975.206 1197.38,983.998 1205.1,989.528C1209.64,992.78 1218.76,998.071 1219.12,997.986C1220.14,997.745 1228.04,992.967 1232.38,990.249C1237.76,986.878 1245.13,982.045 1251.38,977.762C1259.08,972.493 1270.38,964.488 1278.54,958.635C1285.87,953.381 1293.54,947.691 1300.35,942.643C1306.73,937.914 1313.33,933.097 1319.41,928.346C1325.31,923.733 1332.67,917.652 1336.82,914.137C1339.41,911.944 1342.75,908.88 1344.32,907.256C1344.45,907.124 1344.39,904.356 1344.41,902.905C1344.45,900.708 1344.51,897.016 1344.53,894.071C1344.56,890.941 1344.53,887.441 1344.57,884.126C1344.63,879.296 1344.83,870.993 1344.91,865.088C1344.99,859.624 1345.05,854.159 1345.08,848.695C1345.13,840.856 1345.32,821.76 1345.18,818.056C1345.16,817.315 1335.65,826.013 1331.25,830.377C1320.09,841.43 1290.21,872.268 1278.25,884.375C1272.06,890.647 1259.73,903.009 1259.48,903.014C1259.31,903.018 1249.15,889.013 1243.97,882.024C1230.68,864.104 1195.96,818.017 1179.77,795.494C1168.34,779.599 1154.68,758.139 1146.8,746.887C1142.26,740.408 1132.58,728.853 1132.45,727.979C1132.39,727.515 1132.48,722.33 1132.48,719.505C1132.51,708.461 1132.58,675.2 1132.61,661.716C1132.63,654.011 1132.57,644.733 1132.69,638.6C1132.69,638.5 1153.77,638.87 1161.33,638.828C1166.91,638.797 1172.47,638.345 1178.05,638.348C1184.05,638.351 1192.5,638.982 1197.35,638.846C1200.64,638.753 1204.43,638.103 1207.13,637.53C1209.34,637.061 1211.53,636.379 1213.57,635.405C1215.7,634.388 1217.88,632.833 1219.91,631.425C1221.92,630.029 1224.23,628.373 1225.76,626.959C1227.02,625.78 1228.11,624.393 1229.04,622.938C1230.22,621.114 1231.86,618.302 1232.81,616.015C1233.71,613.839 1234.35,611.538 1234.75,609.216C1235.23,606.543 1235.45,602.946 1235.63,599.972C1235.81,597.111 1235.82,593.687 1235.83,591.376C1235.84,589.619 1235.85,587.637 1235.68,586.106C1235.54,584.778 1235.33,583.433 1234.85,582.188C1234.34,580.88 1233.44,579.525 1232.63,578.256C1231.62,576.676 1230.06,574.326 1228.8,572.711C1227.65,571.243 1226.25,569.769 1225.05,568.566C1223.95,567.473 1222.84,566.384 1221.58,565.488C1219.97,564.345 1217.49,562.604 1215.4,561.705C1213.38,560.839 1211.19,560.405 1209.02,560.097C1206.15,559.691 1201.83,559.428 1198.23,559.269C1193.49,559.061 1186.48,558.856 1180.61,558.848C1164.7,558.828 1117.31,559.102 1102.78,559.149C1099.67,559.16 1093.43,559.057 1093.44,559.135C1093.45,559.312 1093.37,561.706 1093.38,562.992Z" style="fill:white;"/>
    </g>
</svg>
